<?xml version="1.0" encoding="UTF-8"?><svg id="_イヤー_2" xmlns="http://www.w3.org/2000/svg" viewBox="0 0 26 47.9"><defs><style>.cls-1{fill:#bd6159;}</style></defs><g id="_ープンキャンパス"><path class="cls-1" d="M26,13C26,5.64,19.89-.29,12.47,.01,5.9,.27,.44,5.61,.03,12.16c-.29,4.66,1.88,8.82,5.33,11.34h-.02s.01,0,.04,.01c.17,.12,.34,.25,.52,.37,1.28,1.16,6.43,5.71,6.09,22.65-.02,.98,.04,1.37,1.02,1.37,1.34,0,1-1.47,1-2.9,0-15.69,4.87-19.99,6.1-21.12,.18-.12,.35-.24,.52-.37,.02,0,.04-.01,.04-.01h-.02c3.24-2.36,5.36-6.18,5.36-10.5Zm-13,6c-3.31,0-6-2.69-6-6s2.69-6,6-6,6,2.69,6,6-2.69,6-6,6Z"/></g></svg>