<?xml version="1.0" encoding="UTF-8"?><svg id="_イヤー_2" xmlns="http://www.w3.org/2000/svg" viewBox="0 0 240.2 33.76"><defs><style>.cls-1{letter-spacing:-.01em;}.cls-2{fill:#ff8a74;stroke:#ff8a74;stroke-miterlimit:10;stroke-width:2px;}.cls-2,.cls-3{font-family:ZenKakuGothicNew-Bold, 'Zen Kaku Gothic New';font-size:29.43px;}.cls-4{letter-spacing:-.02em;}.cls-5{letter-spacing:0em;}.cls-6{letter-spacing:-.01em;}.cls-7{letter-spacing:0em;}.cls-8{letter-spacing:-.01em;}.cls-9{letter-spacing:0em;}.cls-10{letter-spacing:-.01em;}.cls-11{letter-spacing:0em;}.cls-12{letter-spacing:-.02em;}.cls-13{letter-spacing:0em;}.cls-3{fill:#f8f4f1;}.cls-14{letter-spacing:-.01em;}.cls-15{letter-spacing:-.02em;}</style></defs><g id="_ープンキャンパス"><g><text class="cls-2" transform="translate(1 26.9)"><tspan class="cls-11" x="0" y="0">L</tspan><tspan class="cls-15" x="16.8" y="0">a</tspan><tspan class="cls-14" x="31.81" y="0">t</tspan><tspan class="cls-13" x="42.8" y="0">e</tspan><tspan class="cls-5" x="57.89" y="0">s</tspan><tspan x="71.34" y="0">t </tspan><tspan class="cls-8" x="90.92" y="0">i</tspan><tspan class="cls-6" x="98.39" y="0">n</tspan><tspan class="cls-7" x="113.59" y="0">f</tspan><tspan class="cls-9" x="124.23" y="0">o</tspan><tspan class="cls-1" x="139.91" y="0">r</tspan><tspan class="cls-13" x="150.86" y="0">m</tspan><tspan class="cls-12" x="173.74" y="0">a</tspan><tspan class="cls-4" x="188.75" y="0">t</tspan><tspan class="cls-10" x="199.52" y="0">i</tspan><tspan class="cls-9" x="206.89" y="0">o</tspan><tspan x="222.57" y="0">n</tspan></text><text class="cls-3" transform="translate(1 26.9)"><tspan class="cls-11" x="0" y="0">L</tspan><tspan class="cls-15" x="16.8" y="0">a</tspan><tspan class="cls-14" x="31.81" y="0">t</tspan><tspan class="cls-13" x="42.8" y="0">e</tspan><tspan class="cls-5" x="57.89" y="0">s</tspan><tspan x="71.34" y="0">t </tspan><tspan class="cls-8" x="90.92" y="0">i</tspan><tspan class="cls-6" x="98.39" y="0">n</tspan><tspan class="cls-7" x="113.59" y="0">f</tspan><tspan class="cls-9" x="124.23" y="0">o</tspan><tspan class="cls-1" x="139.91" y="0">r</tspan><tspan class="cls-13" x="150.86" y="0">m</tspan><tspan class="cls-12" x="173.74" y="0">a</tspan><tspan class="cls-4" x="188.75" y="0">t</tspan><tspan class="cls-10" x="199.52" y="0">i</tspan><tspan class="cls-9" x="206.89" y="0">o</tspan><tspan x="222.57" y="0">n</tspan></text></g></g></svg>