<?xml version="1.0" encoding="UTF-8"?><svg id="_イヤー_2" xmlns="http://www.w3.org/2000/svg" viewBox="0 0 170.84 43.38"><defs><style>.cls-1{stroke-width:1.63px;}.cls-1,.cls-2,.cls-3{fill:none;stroke:#000;stroke-miterlimit:10;}.cls-4{font-family:HGPGothicE, HGPGothicE;font-size:10.73px;letter-spacing:.1em;}.cls-2{stroke-width:1.63px;}.cls-3{stroke-width:1.68px;}</style></defs><g id="_ープンキャンパス"><g><text class="cls-4" transform="translate(23.65 41.91)"><tspan x="0" y="0">愛知ビジュアル専門学校</tspan></text><g><g><path class="cls-1" d="M85.84,28.67c0-15.34-5.65-27.77-12.62-27.77"/><path class="cls-1" d="M98.47,.89c-6.97,0-12.62,12.43-12.62,27.77"/></g><line class="cls-3" x1="103.51" y1=".05" x2="103.51" y2="28.67"/><line class="cls-3" x1="20.2" y1=".05" x2="20.2" y2="28.67"/><line class="cls-3" x1="63.96" y1=".05" x2="63.96" y2="28.67"/><g><path class="cls-3" d="M114.46,10.99c-2.79,0-5.05-2.26-5.05-5.05s2.26-5.05,5.05-5.05,5.05,2.26,5.05,5.05"/><path class="cls-3" d="M116.14,17.73c2.79,0,5.05,2.26,5.05,5.05s-2.26,5.05-5.05,5.05-5.05-2.26-5.05-5.05"/></g><path class="cls-2" d="M138.63,20.99V.89h-13.02V21.31c0,3.6,2.92,6.52,6.52,6.52s6.52-2.92,6.52-6.52c0-.11-.01-.21-.02-.31Z"/><g><line class="cls-3" x1="58.07" y1=".05" x2="58.07" y2="28.67"/><g><line class="cls-3" x1="45.04" y1=".05" x2="45.04" y2="28.67"/><path class="cls-2" d="M45.05,16.56c0-.11-.02-.21-.02-.31,0-3.6,2.92-6.52,6.52-6.52s6.52,2.92,6.52,6.52"/></g></g><path class="cls-3" d="M164.11,0V21.09c0,3.72,3.01,6.73,6.73,6.73"/><g><path class="cls-3" d="M158.22,28.67V7.57c0-3.72-3.01-6.73-6.73-6.73s-6.73,3.01-6.73,6.73c0,.11,.01,.22,.02,.33V28.67"/><circle class="cls-3" cx="151.49" cy="8.47" r="3.37"/></g><g><path class="cls-3" d="M14.31,28.67V7.57C14.31,3.86,11.29,.84,7.57,.84S.84,3.86,.84,7.57c0,.11,.01,.22,.02,.33V28.67"/><circle class="cls-3" cx="7.57" cy="8.47" r="3.37"/></g><g><path class="cls-2" d="M26.11,7.94c0-.11-.02-.21-.02-.31,0-3.6,2.92-6.52,6.52-6.52s6.52,2.92,6.52,6.52"/><path class="cls-2" d="M26.09,7.63v13.9c0,3.6,2.92,6.52,6.52,6.52s6.52-2.92,6.52-6.52c0-.11-.01-.21-.02-.31"/></g></g></g></g></svg>