<?xml version="1.0" encoding="UTF-8"?><svg id="_イヤー_2" xmlns="http://www.w3.org/2000/svg" viewBox="0 0 297.03 75.42"><defs><style>.cls-1{fill:#fff;font-family:HGPGothicE, HGPGothicE;font-size:18.66px;letter-spacing:.1em;}.cls-2{stroke-width:2.84px;}.cls-2,.cls-3,.cls-4{fill:none;stroke:#fff;stroke-miterlimit:10;}.cls-3{stroke-width:2.93px;}.cls-4{stroke-width:2.83px;}</style></defs><g id="_ープンキャンパス"><g><text class="cls-1" transform="translate(41.12 72.87)"><tspan x="0" y="0">愛知ビジュアル専門学校</tspan></text><g><g><path class="cls-2" d="M149.25,49.84c0-26.67-9.83-48.29-21.95-48.29"/><path class="cls-2" d="M171.2,1.55c-12.12,0-21.95,21.62-21.95,48.29"/></g><line class="cls-3" x1="179.97" y1=".09" x2="179.97" y2="49.84"/><line class="cls-3" x1="35.12" y1=".09" x2="35.12" y2="49.84"/><line class="cls-3" x1="111.2" y1=".09" x2="111.2" y2="49.84"/><g><path class="cls-3" d="M199,19.11c-4.85,0-8.78-3.93-8.78-8.78s3.93-8.78,8.78-8.78,8.78,3.93,8.78,8.78"/><path class="cls-3" d="M201.92,30.82c4.85,0,8.78,3.93,8.78,8.78s-3.93,8.78-8.78,8.78-8.78-3.93-8.78-8.78"/></g><path class="cls-4" d="M241.03,36.5V1.55h-22.63V37.05c0,6.26,5.07,11.33,11.33,11.33s11.33-5.07,11.33-11.33c0-.18-.02-.36-.03-.55Z"/><g><line class="cls-3" x1="100.96" y1=".09" x2="100.96" y2="49.84"/><g><line class="cls-3" x1="78.3" y1=".09" x2="78.3" y2="49.84"/><path class="cls-4" d="M78.33,28.8c0-.18-.03-.36-.03-.55,0-6.26,5.07-11.33,11.33-11.33s11.33,5.07,11.33,11.33"/></g></g><path class="cls-3" d="M285.33,0V36.67c0,6.46,5.24,11.71,11.71,11.71"/><g><path class="cls-3" d="M275.08,49.84V13.17c0-6.46-5.24-11.71-11.71-11.71s-11.71,5.24-11.71,11.71c0,.19,.02,.38,.03,.57V49.84"/><circle class="cls-3" cx="263.38" cy="14.72" r="5.85"/></g><g><path class="cls-3" d="M24.87,49.84V13.17c0-6.46-5.24-11.71-11.71-11.71S1.46,6.7,1.46,13.17c0,.19,.02,.38,.03,.57V49.84"/><circle class="cls-3" cx="13.17" cy="14.72" r="5.85"/></g><g><path class="cls-4" d="M45.39,13.81c0-.18-.03-.36-.03-.55,0-6.26,5.07-11.33,11.33-11.33s11.33,5.07,11.33,11.33"/><path class="cls-4" d="M45.36,13.26v24.16c0,6.26,5.07,11.33,11.33,11.33s11.33-5.07,11.33-11.33c0-.18-.02-.36-.03-.55"/></g></g></g></g></svg>