<?xml version="1.0" encoding="UTF-8"?><svg id="_イヤー_2" xmlns="http://www.w3.org/2000/svg" viewBox="0 0 60.08 43"><defs><style>.cls-1,.cls-2{fill:#bd6159;}.cls-2{stroke:#bd6159;stroke-linecap:round;stroke-miterlimit:10;stroke-width:1.28px;}</style></defs><g id="_ープンキャンパス"><g><path class="cls-1" d="M.6,7.03L29.86,.02c.12-.03,.24-.03,.36,0l29.26,7.01c.76,.18,.81,1.25,.06,1.5l-29.26,9.71c-.16,.05-.33,.05-.49,0L.54,8.53c-.75-.25-.7-1.32,.06-1.5Z"/><path class="cls-1" d="M11.93,15.93l-5.31,19.1c-.13,.45,.13,.92,.58,1.06l21.77,6.87c.56,.18,1.13-.24,1.13-.83V22.08c0-.37-.23-.69-.58-.82L13.06,15.34c-.48-.17-1,.1-1.13,.59Z"/><path class="cls-1" d="M49.43,15.93l5.31,19.1c.13,.45-.13,.92-.58,1.06l-21.77,6.87c-.56,.18-1.13-.24-1.13-.83V22.08c0-.37,.23-.69,.58-.82l16.46-5.92c.48-.17,1,.1,1.13,.59Z"/><line class="cls-2" x1="2.75" y1="10.89" x2="2.75" y2="22.86"/><path class="cls-1" d="M5,25.66c0-2.13-1.01-3.85-2.25-3.85s-2.25,1.72-2.25,3.85v2.29c0,.37,.3,.68,.68,.68h3.14c.37,0,.68-.3,.68-.68v-2.29Z"/></g></g></svg>