<?xml version="1.0" encoding="UTF-8"?><svg id="_イヤー_2" xmlns="http://www.w3.org/2000/svg" viewBox="0 0 50.92 46.18"><defs><style>.cls-1{fill:none;stroke-width:.59px;}.cls-1,.cls-2,.cls-3{stroke:#bd6159;stroke-miterlimit:10;}.cls-2{fill:#fff;}.cls-2,.cls-3{stroke-width:1.18px;}.cls-3{fill:#bd6159;}</style></defs><g id="_ープンキャンパス"><g><path class="cls-3" d="M46.38,14.8h-11.45v-4.74c0-5.23-4.24-9.47-9.47-9.47S15.99,4.83,15.99,10.07v4.74H4.54c-2.18,0-3.95,1.77-3.95,3.95v26.84H18.36v-10.66c0-3.91,3.2-7.11,7.11-7.11s7.11,3.2,7.11,7.11v10.66h17.76V18.75c0-2.18-1.77-3.95-3.95-3.95ZM14.88,33.75H5.4v-4.74H14.88v4.74Zm0-9.47H5.33v-4.74H14.88v4.74Zm21.32-4.74h9.4v4.74h-9.4v-4.74Zm9.47,14.21h-9.47v-4.74h9.47v4.74Z"/><g><circle class="cls-2" cx="25.46" cy="10.48" r="4.74"/><polyline class="cls-1" points="25.56 8.11 25.56 10.48 27.93 10.48"/></g></g></g></svg>