<?xml version="1.0" encoding="UTF-8"?><svg id="_イヤー_2" xmlns="http://www.w3.org/2000/svg" viewBox="0 0 34.38 49.82"><defs><style>.cls-1{fill:#bd6159;}</style></defs><g id="_ープンキャンパス"><path class="cls-1" d="M0,16.18C0,10.99,2.13,6.8,6.41,3.59,10.37,.69,14.95-.45,20.14,.16c5.49,.61,9.46,2.9,11.9,6.87,2.29,3.36,2.9,6.87,1.83,10.53-.91,3.51-2.98,6.26-6.18,8.24l-3.43,2.29c-1.22,.61-1.91,1.83-2.06,3.66v4.58H13.27v-3.66c0-3.97,1.37-6.94,4.12-8.93l5.72-4.12c1.37-.91,2.21-2.06,2.52-3.43,.46-1.98,.15-3.74-.91-5.26-1.99-3.05-5.12-4.12-9.39-3.21-4.12,.91-6.49,3.74-7.09,8.47H0ZM17.85,49.82c-1.68,0-3.05-.61-4.12-1.83-.77-.92-1.15-1.98-1.15-3.21s.38-2.36,1.15-3.43c.91-1.22,2.13-1.83,3.66-1.83,1.52-.15,2.82,.31,3.89,1.37,1.07,1.07,1.6,2.29,1.6,3.66,.15,1.37-.23,2.59-1.14,3.66-.92,1.07-2.22,1.6-3.89,1.6Z"/></g></svg>