<?xml version="1.0" encoding="UTF-8"?><svg id="_イヤー_2" xmlns="http://www.w3.org/2000/svg" viewBox="0 0 31.8 28.84"><defs><style>.cls-1{stroke-width:.37px;}.cls-1,.cls-2{fill:none;stroke:#fff;stroke-miterlimit:10;}.cls-2{stroke-width:.74px;}</style></defs><g id="_ープンキャンパス"><g><path class="cls-2" d="M21.82,9.24v-2.96c0-3.27-2.65-5.92-5.92-5.92h0c-3.27,0-5.92,2.65-5.92,5.92v2.96H2.84c-1.36,0-2.47,1.1-2.47,2.47V28.47H31.43V11.71c0-1.36-1.1-2.47-2.47-2.47h-7.15Z"/><path class="cls-2" d="M20.34,28.47v-6.66c0-2.44-2-4.44-4.44-4.44h0c-2.44,0-4.44,2-4.44,4.44v6.66h8.88Z"/><g><circle class="cls-2" cx="15.9" cy="6.55" r="2.96"/><polyline class="cls-1" points="15.96 5.07 15.96 6.55 17.44 6.55"/></g><rect class="cls-2" x="3.33" y="12.2" width="5.96" height="2.96"/><rect class="cls-2" x="22.6" y="12.2" width="5.87" height="2.96"/><rect class="cls-2" x="3.37" y="18.12" width="5.92" height="2.96"/><rect class="cls-2" x="22.6" y="18.12" width="5.92" height="2.96"/></g></g></svg>